<mxfile host="app.diagrams.net" agent="Mozilla/5.0 (Windows NT 10.0; Win64; x64) AppleWebKit/537.36 (KHTML, like Gecko) Chrome/130.0.0.0 Safari/537.36" version="24.8.1">
  <diagram name="Страница — 1" id="9SsIets74TTxYJMYLhih">
    <mxGraphModel dx="2284" dy="1066" grid="1" gridSize="10" guides="1" tooltips="1" connect="1" arrows="1" fold="1" page="1" pageScale="1" pageWidth="2339" pageHeight="3300" math="0" shadow="0">
      <root>
        <mxCell id="0" />
        <mxCell id="1" parent="0" />
        <mxCell id="lgjhHmhEUfBVVSUQdlQv-37" value="" style="rounded=0;whiteSpace=wrap;html=1;fillColor=none;movable=1;resizable=1;rotatable=1;deletable=1;editable=1;locked=0;connectable=1;" parent="1" vertex="1">
          <mxGeometry x="100" y="470" width="520" height="410" as="geometry" />
        </mxCell>
        <mxCell id="lgjhHmhEUfBVVSUQdlQv-1" value="" style="rounded=0;whiteSpace=wrap;html=1;movable=1;resizable=1;rotatable=1;deletable=1;editable=1;locked=0;connectable=1;" parent="1" vertex="1">
          <mxGeometry x="100" y="80" width="520" height="1530" as="geometry" />
        </mxCell>
        <mxCell id="lgjhHmhEUfBVVSUQdlQv-3" value="Заголовок" style="text;html=1;align=center;verticalAlign=middle;whiteSpace=wrap;rounded=0;strokeWidth=1;fontStyle=1" parent="1" vertex="1">
          <mxGeometry x="190" y="90" width="60" height="30" as="geometry" />
        </mxCell>
        <mxCell id="lgjhHmhEUfBVVSUQdlQv-5" value="Добавление фото и видео в отзыв" style="text;html=1;align=center;verticalAlign=middle;whiteSpace=wrap;rounded=0;" parent="1" vertex="1">
          <mxGeometry x="380" y="90" width="140" height="30" as="geometry" />
        </mxCell>
        <mxCell id="lgjhHmhEUfBVVSUQdlQv-7" value="&lt;b&gt;Акторы&lt;/b&gt;" style="text;html=1;align=center;verticalAlign=middle;whiteSpace=wrap;rounded=0;" parent="1" vertex="1">
          <mxGeometry x="190" y="160" width="60" height="30" as="geometry" />
        </mxCell>
        <mxCell id="lgjhHmhEUfBVVSUQdlQv-8" value="Пользователь" style="text;html=1;align=center;verticalAlign=middle;whiteSpace=wrap;rounded=0;" parent="1" vertex="1">
          <mxGeometry x="430" y="160" width="60" height="30" as="geometry" />
        </mxCell>
        <mxCell id="lgjhHmhEUfBVVSUQdlQv-9" value="&lt;b&gt;Предусловие&lt;/b&gt;" style="text;html=1;align=center;verticalAlign=middle;whiteSpace=wrap;rounded=0;" parent="1" vertex="1">
          <mxGeometry x="170" y="230" width="100" height="30" as="geometry" />
        </mxCell>
        <mxCell id="lgjhHmhEUfBVVSUQdlQv-12" value="Пользователь авторизован в приложении и имеет возможность оставлять отзывы о товарах." style="text;html=1;align=left;verticalAlign=middle;whiteSpace=wrap;rounded=0;" parent="1" vertex="1">
          <mxGeometry x="342.5" y="230" width="270" height="30" as="geometry" />
        </mxCell>
        <mxCell id="lgjhHmhEUfBVVSUQdlQv-13" value="&lt;b&gt;Ограничения&lt;/b&gt;" style="text;html=1;align=center;verticalAlign=middle;whiteSpace=wrap;rounded=0;" parent="1" vertex="1">
          <mxGeometry x="190" y="330" width="60" height="30" as="geometry" />
        </mxCell>
        <mxCell id="lgjhHmhEUfBVVSUQdlQv-15" value="Ограничение на максимальный размер фото и видео, ограничение на количество загружаемых файлов." style="text;html=1;align=left;verticalAlign=middle;whiteSpace=wrap;rounded=0;" parent="1" vertex="1">
          <mxGeometry x="342.5" y="330" width="265" height="30" as="geometry" />
        </mxCell>
        <mxCell id="lgjhHmhEUfBVVSUQdlQv-16" value="&lt;b&gt;Триггер&lt;/b&gt;" style="text;html=1;align=center;verticalAlign=middle;whiteSpace=wrap;rounded=0;" parent="1" vertex="1">
          <mxGeometry x="190" y="420" width="60" height="30" as="geometry" />
        </mxCell>
        <mxCell id="lgjhHmhEUfBVVSUQdlQv-17" value="Пользователь нажимает кнопку &quot;добавить отзыв&quot;." style="text;html=1;align=left;verticalAlign=middle;whiteSpace=wrap;rounded=0;fontStyle=0" parent="1" vertex="1">
          <mxGeometry x="342.5" y="420" width="265" height="30" as="geometry" />
        </mxCell>
        <mxCell id="lgjhHmhEUfBVVSUQdlQv-18" value="&lt;b&gt;Основной сценарий&lt;/b&gt;" style="text;html=1;align=center;verticalAlign=middle;whiteSpace=wrap;rounded=0;" parent="1" vertex="1">
          <mxGeometry x="175" y="760" width="90" height="30" as="geometry" />
        </mxCell>
        <mxCell id="lgjhHmhEUfBVVSUQdlQv-20" value="&lt;div&gt;1. &lt;b&gt;Пользователь:&amp;nbsp;&lt;/b&gt;открывает приложение.&lt;/div&gt;&lt;div&gt;1.1&amp;nbsp;&lt;strong style=&quot;background-color: initial;&quot;&gt;Система:&lt;/strong&gt;&lt;span style=&quot;background-color: initial;&quot;&gt; Отображает главный экран приложения.&lt;/span&gt;&lt;/div&gt;&lt;div&gt;&lt;br&gt;&lt;/div&gt;&lt;div&gt;2. &lt;b&gt;Пользователь:&amp;nbsp;&lt;/b&gt;находит ранее купленный товар и переходит в раздел &quot;Оставить отзыв&quot;.&lt;/div&gt;&lt;div&gt;2.1&amp;nbsp;&lt;strong style=&quot;background-color: initial;&quot;&gt;Система:&lt;/strong&gt;&lt;span style=&quot;background-color: initial;&quot;&gt; Переходит на экран товара, отображает интерфейс для написания отзыва.&lt;/span&gt;&lt;/div&gt;&lt;div&gt;&lt;br&gt;&lt;/div&gt;&lt;div&gt;3. &lt;b&gt;Пользователь:&amp;nbsp;&lt;/b&gt;вводит текст отзыва.&lt;/div&gt;&lt;div&gt;3.1&amp;nbsp;&lt;strong style=&quot;background-color: initial;&quot;&gt;Система:&lt;/strong&gt;&lt;span style=&quot;background-color: initial;&quot;&gt; Отображает текст отзыва в соответствующем поле и активирует кнопку &quot;Добавить фото/видео&quot;.&lt;/span&gt;&lt;/div&gt;&lt;div&gt;&lt;br&gt;&lt;/div&gt;&lt;div&gt;4. &lt;b&gt;Пользователь:&amp;nbsp;&lt;/b&gt;нажимает на кнопку &quot;Добавить фото/видео&quot;.&lt;/div&gt;&lt;div&gt;4.1&amp;nbsp;&lt;strong style=&quot;background-color: initial;&quot;&gt;Система:&lt;/strong&gt;&lt;span style=&quot;background-color: initial;&quot;&gt; Открывает диалоговое окно выбора файлов с доступом к галерее устройства.&lt;/span&gt;&lt;/div&gt;&lt;div&gt;&lt;br&gt;&lt;/div&gt;&lt;div&gt;5.&amp;nbsp;&lt;strong style=&quot;background-color: initial;&quot;&gt;Система:&lt;/strong&gt;&lt;span style=&quot;background-color: initial;&quot;&gt; Ожидает выбора файлов пользователем.&lt;/span&gt;&lt;/div&gt;&lt;div&gt;&lt;br&gt;&lt;/div&gt;&lt;div&gt;6. &lt;b&gt;Пользователь:&amp;nbsp;&lt;/b&gt;выбирает одно или несколько фото/видео.&lt;/div&gt;&lt;div&gt;6.1&amp;nbsp;&lt;strong style=&quot;background-color: initial;&quot;&gt;Система:&lt;/strong&gt;&lt;span style=&quot;background-color: initial;&quot;&gt; Отмечает выбранные файлы, проверяет их на соответствие ограничениям по размеру и формату.&lt;/span&gt;&lt;/div&gt;&lt;div&gt;&lt;br&gt;&lt;/div&gt;&lt;div&gt;7. &lt;b&gt;Приложение:&amp;nbsp;&lt;/b&gt;загружает выбранные файлы на сервер.&lt;/div&gt;&lt;div&gt;&lt;strong&gt;7.1 Система:&lt;/strong&gt; Отображает индикатор загрузки, затем подтверждает успешную загрузку каждого файла.&lt;/div&gt;&lt;div&gt;&lt;br&gt;&lt;/div&gt;&lt;div&gt;8. &lt;b&gt;Приложение &lt;/b&gt;отображает миниатюры загруженных файлов в отзыве.&lt;/div&gt;&lt;div&gt;&lt;br&gt;&lt;/div&gt;&lt;div&gt;9. &lt;b&gt;Пользователь:&lt;/b&gt; нажимает на кнопку &quot;Отправить отзыв&quot;.&lt;/div&gt;&lt;div&gt;&lt;strong&gt;9.1 Система:&lt;/strong&gt; Отправляет отзыв на сервер, отображает уведомление об успешной отправке и возвращает пользователя на страницу товара.&lt;/div&gt;&lt;div&gt;&lt;br&gt;&lt;/div&gt;" style="text;html=1;align=left;verticalAlign=middle;whiteSpace=wrap;rounded=0;movable=1;resizable=1;rotatable=1;deletable=1;editable=1;locked=0;connectable=1;" parent="1" vertex="1">
          <mxGeometry x="330" y="580" width="280" height="460" as="geometry" />
        </mxCell>
        <mxCell id="lgjhHmhEUfBVVSUQdlQv-22" value="&lt;b&gt;Альтернативный сценарий&lt;/b&gt;" style="text;html=1;align=center;verticalAlign=middle;whiteSpace=wrap;rounded=0;" parent="1" vertex="1">
          <mxGeometry x="190" y="1250" width="60" height="30" as="geometry" />
        </mxCell>
        <mxCell id="lgjhHmhEUfBVVSUQdlQv-32" value="&lt;div&gt;1. &lt;b&gt;Пользователь &lt;/b&gt;пытается загрузить файл, превышающий ограничение по размеру.&lt;/div&gt;&lt;div&gt;(Ограничений по весу для фото нет, а видео файлы могут быть размером до 20 МБ, с максимальной длиной 3 минуты)&lt;/div&gt;&lt;div&gt;Ограничение по количеству фото -&amp;nbsp; 5 максимум&lt;/div&gt;&lt;div&gt;&lt;br&gt;&lt;/div&gt;&lt;div&gt;2. &lt;b&gt;Приложение &lt;/b&gt;выводит сообщение об ошибке и предлагает выбрать файлы&lt;/div&gt;" style="text;html=1;align=left;verticalAlign=middle;whiteSpace=wrap;rounded=0;" parent="1" vertex="1">
          <mxGeometry x="325" y="1435" width="270" height="145" as="geometry" />
        </mxCell>
        <mxCell id="lgjhHmhEUfBVVSUQdlQv-33" value="" style="rounded=0;whiteSpace=wrap;html=1;fillColor=none;" parent="1" vertex="1">
          <mxGeometry x="100" y="130" width="520" height="80" as="geometry" />
        </mxCell>
        <mxCell id="lgjhHmhEUfBVVSUQdlQv-34" value="" style="rounded=0;whiteSpace=wrap;html=1;fillColor=none;" parent="1" vertex="1">
          <mxGeometry x="100" y="210" width="520" height="90" as="geometry" />
        </mxCell>
        <mxCell id="lgjhHmhEUfBVVSUQdlQv-35" value="" style="rounded=0;whiteSpace=wrap;html=1;fillColor=none;" parent="1" vertex="1">
          <mxGeometry x="100" y="300" width="520" height="80" as="geometry" />
        </mxCell>
        <mxCell id="lgjhHmhEUfBVVSUQdlQv-36" value="" style="rounded=0;whiteSpace=wrap;html=1;fillColor=none;" parent="1" vertex="1">
          <mxGeometry x="100" y="380" width="520" height="90" as="geometry" />
        </mxCell>
        <mxCell id="lgjhHmhEUfBVVSUQdlQv-39" style="edgeStyle=none;rounded=0;orthogonalLoop=1;jettySize=auto;html=1;exitX=0.5;exitY=1;exitDx=0;exitDy=0;" parent="1" source="lgjhHmhEUfBVVSUQdlQv-1" target="lgjhHmhEUfBVVSUQdlQv-1" edge="1">
          <mxGeometry relative="1" as="geometry" />
        </mxCell>
        <mxCell id="uTZFWzf7lMP7gkIJeXPZ-3" value="&lt;p style=&quot;text-align: left;&quot;&gt;&lt;strong&gt;2(а) Пользователь&lt;/strong&gt;: Переходит в каталог и находит нужный товар.&lt;/p&gt;&lt;p style=&quot;text-align: left;&quot;&gt;&lt;strong style=&quot;background-color: initial;&quot;&gt;2.1(а) Система&lt;/strong&gt;&lt;span style=&quot;background-color: initial;&quot;&gt;: Отображает карточку выбранного товара.&lt;/span&gt;&lt;/p&gt;&lt;p style=&quot;text-align: left;&quot;&gt;&lt;strong&gt;3(а) Пользователь&lt;/strong&gt;: Нажимает на кнопку &quot;Оставить отзыв&quot; в карточке товара.&lt;/p&gt;&lt;p style=&quot;text-align: left;&quot;&gt;&lt;strong style=&quot;background-color: initial;&quot;&gt;3.1(а )Система&lt;/strong&gt;&lt;span style=&quot;background-color: initial;&quot;&gt;: Переходит в интерфейс написания отзыва для данного товара.&lt;/span&gt;&lt;/p&gt;" style="text;html=1;align=center;verticalAlign=middle;whiteSpace=wrap;rounded=0;" vertex="1" parent="1">
          <mxGeometry x="325" y="1120" width="260" height="270" as="geometry" />
        </mxCell>
        <mxCell id="uTZFWzf7lMP7gkIJeXPZ-4" value="&lt;b&gt;Исключительный сценарий&amp;nbsp;&lt;/b&gt;" style="text;html=1;align=center;verticalAlign=middle;whiteSpace=wrap;rounded=0;" vertex="1" parent="1">
          <mxGeometry x="165" y="1497.5" width="90" height="82.5" as="geometry" />
        </mxCell>
        <mxCell id="uTZFWzf7lMP7gkIJeXPZ-6" value="" style="rounded=0;whiteSpace=wrap;html=1;fillColor=none;" vertex="1" parent="1">
          <mxGeometry x="100" y="1140" width="520" height="260" as="geometry" />
        </mxCell>
        <mxCell id="lgjhHmhEUfBVVSUQdlQv-41" value="" style="rounded=0;whiteSpace=wrap;html=1;fillColor=none;rotation=-90;" parent="1" vertex="1">
          <mxGeometry x="-555" y="735" width="1530" height="220" as="geometry" />
        </mxCell>
      </root>
    </mxGraphModel>
  </diagram>
</mxfile>
